<svg width="640" height="640" viewBox="0 0 640 640" fill="none" xmlns="http://www.w3.org/2000/svg">
<path d="M389.828 261.188C381.69 261.188 374.138 258.551 367.172 253.277C360.206 248.069 354.249 240.68 349.301 231.109C344.418 221.539 340.967 210.309 338.949 197.418C341.423 201.129 344.646 204.026 348.617 206.109C352.654 208.128 357.243 209.137 362.387 209.137C370.915 209.137 377.751 206.435 382.895 201.031C388.038 195.562 390.609 188.368 390.609 179.449C390.609 170.66 388.038 163.564 382.895 158.16C377.751 152.691 370.915 149.957 362.387 149.957C356.592 149.957 351.547 151.227 347.25 153.766C343.018 156.305 339.763 159.82 337.484 164.312C338.396 148.622 341.26 134.918 346.078 123.199C350.896 111.415 357.113 102.268 364.73 95.7578C372.348 89.1823 380.714 85.8945 389.828 85.8945C397.185 85.8945 404.021 88.0104 410.336 92.2422C416.716 96.474 422.315 102.464 427.133 110.211C431.951 117.958 435.694 127.203 438.363 137.945C441.098 148.622 442.465 160.471 442.465 173.492C442.465 186.513 441.098 198.395 438.363 209.137C435.694 219.879 431.951 229.124 427.133 236.871C422.315 244.618 416.716 250.608 410.336 254.84C404.021 259.072 397.185 261.188 389.828 261.188ZM354.379 175.934C352.621 175.608 351.221 174.566 350.18 172.809C349.203 170.986 348.91 168.935 349.301 166.656C349.691 164.443 350.668 162.652 352.23 161.285C353.793 159.918 355.421 159.397 357.113 159.723C358.936 160.048 360.336 161.122 361.312 162.945C362.289 164.768 362.549 166.786 362.094 169C361.638 171.214 360.661 173.004 359.164 174.371C357.732 175.738 356.137 176.259 354.379 175.934ZM511.605 261.188C503.402 261.188 495.818 258.551 488.852 253.277C481.885 248.069 475.961 240.68 471.078 231.109C466.195 221.539 462.745 210.309 460.727 197.418C463.201 201.129 466.423 204.026 470.395 206.109C474.366 208.128 478.923 209.137 484.066 209.137C492.595 209.137 499.431 206.435 504.574 201.031C509.783 195.562 512.387 188.368 512.387 179.449C512.387 170.66 509.783 163.564 504.574 158.16C499.431 152.691 492.595 149.957 484.066 149.957C478.337 149.957 473.324 151.227 469.027 153.766C464.796 156.305 461.54 159.82 459.262 164.312C460.108 148.622 462.94 134.918 467.758 123.199C472.641 111.415 478.858 102.268 486.41 95.7578C494.027 89.1823 502.426 85.8945 511.605 85.8945C518.897 85.8945 525.733 88.0104 532.113 92.2422C538.493 96.474 544.092 102.464 548.91 110.211C553.728 117.958 557.471 127.203 560.141 137.945C562.875 148.622 564.242 160.471 564.242 173.492C564.242 186.513 562.875 198.395 560.141 209.137C557.471 219.879 553.728 229.124 548.91 236.871C544.092 244.618 538.493 250.608 532.113 254.84C525.733 259.072 518.897 261.188 511.605 261.188ZM476.156 175.934C474.333 175.543 472.934 174.469 471.957 172.711C470.98 170.953 470.688 168.935 471.078 166.656C471.469 164.443 472.445 162.652 474.008 161.285C475.57 159.918 477.198 159.397 478.891 159.723C480.714 159.983 482.081 161.057 482.992 162.945C483.969 164.768 484.262 166.786 483.871 169C483.415 171.214 482.439 173.004 480.941 174.371C479.444 175.738 477.849 176.259 476.156 175.934Z" fill="white"/>
</svg>
